<svg width="130" height="142" viewBox="0 0 130 142" fill="none" xmlns="http://www.w3.org/2000/svg">
<path opacity="0.4" d="M124.768 2.58419C122.988 1.03592 120.174 -0.017916 117.808 0.231303C115.273 0.509999 112.669 1.53354 111.066 3.60952C109.571 5.53454 108.42 8.08911 108.753 10.6042C109.567 16.7545 110.163 22.9598 110.402 29.1598C110.431 30.0015 110.452 30.8439 110.464 31.6871C107.953 31.2493 105.459 30.604 102.986 30.0829L97.0688 28.8036C95.3102 28.4222 93.54 27.9385 91.7478 27.8056C89.2242 27.5902 87.4769 27.5791 85.0165 28.2393C82.7111 28.8617 80.6756 30.3201 79.057 32.0393C78.0765 33.0537 77.3095 34.2571 76.8017 35.5776C75.8705 38.0971 75.6862 39.4737 75.5924 42.185C75.565 43.576 75.6429 44.9832 75.6449 46.3784C75.6478 48.0006 75.6365 49.6104 75.6112 51.2077C75.572 53.9571 75.5034 56.7022 75.3706 59.4484L74.9052 59.4402C72.6289 59.3947 70.3532 59.3017 68.0781 59.1613C65.1482 58.9176 62.235 58.5275 59.305 58.2838C57.0681 58.1006 54.7927 57.8791 52.5615 58.2543C51.1959 58.4931 49.7416 58.6869 48.4433 59.22C47.0242 59.7458 45.6803 60.4564 44.4458 61.3339C42.241 62.9612 40.4363 65.0749 39.1692 67.5138C38.7867 68.3163 38.4728 69.1503 38.2308 70.0068C37.9007 70.9076 37.6472 71.8353 37.4729 72.7798C36.8487 76.884 37.352 80.5986 38.2728 84.6063C38.6892 86.4171 39.3278 88.1558 39.896 89.9175C39.3565 89.844 38.8171 89.7706 38.2752 89.7181C32.8203 89.1945 27.3764 88.5624 21.924 87.9733C20.6507 87.8328 19.3747 87.6972 18.0959 87.5663C16.7708 87.4331 15.4359 87.3229 14.107 87.28C12.6627 87.2276 11.2998 87.5509 9.87818 87.8658C9.60181 87.9201 9.32955 87.9936 9.06338 88.0857C8.06556 88.4661 7.10466 88.9374 6.19259 89.4938C5.64193 89.8728 5.12657 90.3012 4.65281 90.7737C3.81583 91.4626 3.1035 92.2917 2.54704 93.2249C1.62736 94.6022 0.97448 96.1426 0.622605 97.7653C0.516934 98.3766 0.460453 98.9957 0.453676 99.6165C0.39022 100.273 0.359882 100.933 0.362782 101.593C0.43608 103.52 0.967022 105.442 1.39119 107.312C1.69393 108.642 2.0489 109.957 2.45609 111.256C3.23316 113.763 4.14291 116.226 5.18145 118.635C7.51846 124.143 10.2679 129.463 12.4899 135.022C13.4637 137.466 15.0941 139.565 17.5002 140.734C19.6062 141.76 22.6026 142.07 24.8151 141.193C27.1965 140.27 29.4409 138.601 30.4731 136.172C31.4358 133.904 31.8671 131.174 30.9222 128.808C28.0527 121.627 24.312 114.769 21.7459 107.517C24.6561 107.852 27.5703 108.201 30.4722 108.505C32.3167 108.697 34.1793 108.806 36.0199 109.089C36.8627 109.226 37.7366 109.359 38.602 109.446C40.4819 109.689 42.3775 109.779 44.2707 109.717C45.2247 109.636 46.172 109.491 47.1067 109.285C48.0593 109.143 48.996 108.91 49.9043 108.59C51.1875 108.114 52.4094 107.486 53.5443 106.719C54.4083 106.061 55.2253 105.343 55.9894 104.57C56.1971 104.371 56.3899 104.158 56.5663 103.931C58.2908 101.664 59.6097 98.9992 59.9108 96.1304C60.1343 94.3971 60.1622 92.6433 59.9939 90.9023C59.7324 88.8546 59.3086 86.8307 58.7265 84.8499C58.1131 82.7718 57.3443 80.7599 56.8139 78.6756C56.766 78.3193 56.7246 77.9572 56.6918 77.5968L56.7331 77.5857C58.481 77.763 60.2254 78.002 61.9739 78.167C65.0728 78.4543 68.1861 78.6606 71.2943 78.8034C73.6743 78.9196 76.0587 78.9778 78.4387 79.0047C79.6484 79.0189 80.8575 79.0212 82.0661 79.0114C83.6513 78.9892 85.1894 79.0161 86.7321 78.4779C87.5591 78.1385 88.3598 77.7379 89.1277 77.2794C89.8514 76.7336 90.527 76.1263 91.1473 75.4641C91.4213 75.0924 91.6746 74.7057 91.9062 74.3058C92.1872 73.919 92.444 73.5149 92.6753 73.096C93.1281 72.0518 93.4854 70.968 93.7428 69.858C93.9925 68.7571 94.1647 67.6395 94.2579 66.5135C94.7122 62.2279 94.8725 57.9122 94.9839 53.6097C95.0275 51.8613 95.0563 50.1129 95.0704 48.3644L99.0142 49.2147C102.5 49.9656 106.015 50.9278 109.567 51.2672C111.846 51.4877 114.203 51.7116 116.479 51.3082C119.23 50.8168 121.871 50.2581 124.211 48.6159C127.074 46.6258 128.597 43.4922 129.287 40.1533C129.745 37.9401 129.791 35.6066 129.87 33.3618C129.928 31.4556 129.891 29.5424 129.811 27.6365C129.651 23.7318 129.316 19.8339 128.927 15.9464C128.706 13.7542 128.465 11.5633 128.174 9.38184C127.807 6.77045 126.817 4.35582 124.768 2.58419Z" fill="#F8A060"/>
</svg>
