<svg width="24" height="24" viewBox="0 0 24 24" fill="none" xmlns="http://www.w3.org/2000/svg">
<rect width="24" height="24" rx="8" fill="#39B54A"/>
<path d="M11.9996 9.40847C12.4117 9.40847 12.8146 9.28598 13.1572 9.05651C13.4999 8.82703 13.7669 8.50087 13.9246 8.11927C14.0823 7.73766 14.1236 7.31775 14.0432 6.91265C13.9628 6.50754 13.7643 6.13542 13.473 5.84335C13.1816 5.55129 12.8103 5.35239 12.4061 5.2718C12.0019 5.19122 11.583 5.23258 11.2023 5.39065C10.8215 5.54871 10.4961 5.81639 10.2672 6.15982C10.0382 6.50326 9.91602 6.90703 9.91602 7.32007C9.91602 7.87395 10.1355 8.40514 10.5263 8.79679C10.917 9.18844 11.447 9.40847 11.9996 9.40847Z" fill="white"/>
<path d="M17.3558 7.64526C17.2779 7.54099 17.1795 7.45386 17.0667 7.38928C16.9538 7.3247 16.8289 7.28404 16.6998 7.26984C16.5706 7.25563 16.4399 7.26817 16.3157 7.30668C16.1916 7.34519 16.0767 7.40885 15.9781 7.49372L13.8214 9.34799C13.3148 9.78415 12.669 10.024 12.0011 10.024C11.3333 10.024 10.6875 9.78415 10.1809 9.34799L8.0208 7.49372C7.92222 7.40885 7.80729 7.34519 7.68315 7.30668C7.55901 7.26817 7.42829 7.25563 7.29912 7.26984C7.16994 7.28404 7.04505 7.3247 6.9322 7.38928C6.81934 7.45386 6.72093 7.54099 6.64305 7.64526C6.50093 7.84521 6.43945 8.09161 6.47096 8.33507C6.50246 8.57854 6.62462 8.80107 6.81294 8.95806L9.80456 11.5317V17.8506C9.80456 18.094 9.90103 18.3274 10.0728 18.4995C10.2445 18.6716 10.4774 18.7683 10.7202 18.7683C10.8405 18.7684 10.9597 18.7448 11.0709 18.6987C11.1821 18.6526 11.2831 18.5851 11.3682 18.4998C11.4534 18.4146 11.5209 18.3134 11.567 18.202C11.613 18.0906 11.6367 17.9711 11.6367 17.8506V14.8904H12.363V17.8506C12.3702 18.0892 12.4699 18.3157 12.6409 18.482C12.812 18.6482 13.0408 18.7412 13.2791 18.7412C13.5173 18.7412 13.7462 18.6482 13.9172 18.482C14.0882 18.3157 14.1879 18.0892 14.1952 17.8506V11.5317L17.1893 8.95806C17.3771 8.8006 17.4986 8.57783 17.5295 8.33439C17.5604 8.09095 17.4983 7.8448 17.3558 7.64526Z" fill="white"/>
</svg>
