<svg width="16" height="18" viewBox="0 0 16 18" fill="none" xmlns="http://www.w3.org/2000/svg">
<path d="M14.0298 6.28801L8.82488 1.26826C8.37284 0.820781 7.72505 0.604277 7.09749 0.697959L2.40387 1.36777C2.03113 1.42109 1.77194 1.76632 1.82527 2.13906C1.87859 2.51179 2.22314 2.7703 2.59724 2.71765L7.29154 2.04784C7.50006 2.01798 7.71597 2.08833 7.87306 2.24359L13.0786 7.26335C13.7954 7.97184 13.8715 9.08645 13.3142 9.88558C13.1528 9.56803 12.9539 9.26571 12.6877 9.00265L7.56059 3.97766C7.10924 3.53155 6.46761 3.3191 5.8332 3.40737L1.1389 4.07717C0.829533 4.12126 0.589561 4.37022 0.557277 4.6814L0.0630815 9.4009C-0.00149156 10.0226 0.216197 10.6303 0.662055 11.0703L5.74874 16.0553C6.39628 16.696 7.2542 17.045 8.16463 17.0396L8.17622 17.0396C9.0914 17.0315 9.94721 16.6664 10.5865 16.0114L12.7335 13.8111C13.362 13.167 13.6749 12.3332 13.6905 11.4949L14.0817 11.0998C15.3867 9.76232 15.3666 7.606 14.0318 6.28732L14.0298 6.28801ZM3.44841 7.52002C3.07196 7.52221 2.76466 7.21847 2.76247 6.84203C2.76136 5.95 4.1171 5.94277 4.12639 6.83407C4.12859 7.21052 3.82485 7.51782 3.44841 7.52002Z" fill="white"/>
</svg>
