<svg width="5" height="14" viewBox="0 0 5 14" fill="none" xmlns="http://www.w3.org/2000/svg">
<path id="!" d="M2.5 9.39167C2.14626 9.39167 1.86054 9.28148 1.64286 9.06111C1.43878 8.84074 1.30952 8.53611 1.2551 8.14722L0.540816 2.275C0.445578 1.60093 0.57483 1.05648 0.928571 0.641666C1.28231 0.213889 1.80612 0 2.5 0C3.20748 0 3.73129 0.213889 4.07143 0.641666C4.41156 1.05648 4.53401 1.60093 4.43878 2.275L3.7449 8.14722C3.69048 8.53611 3.56122 8.84074 3.35714 9.06111C3.15306 9.28148 2.86735 9.39167 2.5 9.39167ZM2.5 14C1.88776 14 1.39796 13.825 1.03061 13.475C0.676871 13.125 0.5 12.6648 0.5 12.0944C0.5 11.537 0.676871 11.0898 1.03061 10.7528C1.39796 10.4028 1.88776 10.2278 2.5 10.2278C3.13946 10.2278 3.62925 10.4028 3.96939 10.7528C4.32313 11.0898 4.5 11.537 4.5 12.0944C4.5 12.6648 4.32313 13.125 3.96939 13.475C3.62925 13.825 3.13946 14 2.5 14Z" fill="white"/>
</svg>
