<svg width="12" height="16" viewBox="0 0 12 16" fill="none" xmlns="http://www.w3.org/2000/svg">
<g id="Group 124">
<path id="Vector" d="M5.99962 6.29347C6.41172 6.29347 6.81456 6.16646 7.15721 5.9285C7.49986 5.69054 7.76692 5.35232 7.92462 4.9566C8.08232 4.56089 8.12358 4.12546 8.04319 3.70538C7.96279 3.28529 7.76435 2.89942 7.47295 2.59655C7.18155 2.29369 6.81029 2.08744 6.40611 2.00388C6.00193 1.92032 5.58299 1.9632 5.20226 2.12711C4.82153 2.29102 4.49612 2.56859 4.26717 2.92472C4.03822 3.28085 3.91602 3.69955 3.91602 4.12787C3.91602 4.70222 4.13554 5.25305 4.52629 5.65918C4.91704 6.0653 5.44701 6.29347 5.99962 6.29347Z" fill="white"/>
<path id="Vector_2" d="M11.355 4.46535C11.2771 4.35722 11.1787 4.26687 11.0658 4.1999C10.953 4.13294 10.8281 4.09078 10.6989 4.07605C10.5697 4.06131 10.439 4.07431 10.3149 4.11425C10.1907 4.15418 10.0758 4.2202 9.97724 4.3082L7.82058 6.23102C7.31394 6.68331 6.66817 6.93199 6.00029 6.93199C5.33242 6.93199 4.68665 6.68331 4.18001 6.23102L2.0225 4.3082C1.92399 4.22022 1.80914 4.15422 1.68506 4.11429C1.56099 4.07437 1.43034 4.06137 1.30123 4.07611C1.17212 4.09084 1.04731 4.133 0.934525 4.19995C0.821743 4.26691 0.723404 4.35724 0.645609 4.46535C0.503088 4.67254 0.441377 4.92816 0.472897 5.18075C0.504418 5.43333 0.626829 5.66413 0.815491 5.82668L3.7536 8.44694L2.19918 12.5645H3.80457V15.0479C3.80457 15.173 3.82828 15.2968 3.87435 15.4123C3.92042 15.5278 3.98794 15.6328 4.07306 15.7212C4.15818 15.8096 4.25922 15.8797 4.37041 15.9274C4.4816 15.9752 4.60076 15.9997 4.72108 15.9996C4.96393 15.9996 5.19683 15.8994 5.36855 15.7209C5.54027 15.5424 5.63675 15.3003 5.63675 15.0479V12.674H6.36129V15.0479C6.36855 15.2954 6.46824 15.5303 6.63925 15.7027C6.81026 15.8751 7.03914 15.9715 7.27738 15.9715C7.51563 15.9715 7.74451 15.8751 7.91552 15.7027C8.08653 15.5303 8.18622 15.2954 8.19347 15.0479V12.5645H9.64936L8.19347 8.4955L11.1885 5.82668C11.3763 5.6634 11.4978 5.4324 11.5287 5.17996C11.5595 4.92751 11.4975 4.67227 11.355 4.46535Z" fill="white"/>
<path id="Vector_3" d="M7.34976 0.0254647L6.42985 0.577238C6.39097 0.517457 6.33859 0.468493 6.27728 0.434633C6.21598 0.400773 6.14762 0.383049 6.07819 0.383014H5.95758C5.89114 0.383729 5.82579 0.400635 5.76678 0.432374C5.70777 0.464114 5.65675 0.5098 5.61781 0.565761L4.71744 0.0254647C4.69212 0.009405 4.66311 0.000743322 4.63345 0.000393459C4.6038 4.35963e-05 4.5746 0.00801837 4.54894 0.0234767C4.52328 0.0389351 4.50212 0.061304 4.48767 0.0882241C4.47322 0.115144 4.46603 0.145617 4.46686 0.17643V1.89885C4.46686 1.92891 4.47448 1.95844 4.48894 1.98448C4.5034 2.01051 4.52421 2.03213 4.54926 2.04716C4.57431 2.0622 4.60272 2.07011 4.63165 2.07011C4.66057 2.07011 4.68899 2.06219 4.71404 2.04716L5.61442 1.50687C5.65335 1.56283 5.70437 1.60851 5.76338 1.64025C5.82239 1.67199 5.88774 1.6889 5.95418 1.68961H6.0748C6.14422 1.68958 6.21258 1.67185 6.27388 1.63799C6.33519 1.60413 6.38757 1.55517 6.42645 1.49539L7.34636 2.04716C7.37135 2.06226 7.39973 2.07022 7.42863 2.07025C7.45753 2.07027 7.48593 2.06235 7.51094 2.04729C7.53594 2.03224 7.55668 2.01058 7.57104 1.98451C7.58539 1.95844 7.59287 1.92888 7.59269 1.89885V0.17643C7.59297 0.14668 7.58576 0.117373 7.57175 0.091424C7.55775 0.0654746 7.53746 0.0437874 7.51289 0.0285201C7.48832 0.0132529 7.46034 0.00493766 7.43172 0.0044016C7.4031 0.00386554 7.37484 0.0111274 7.34976 0.0254647Z" fill="white"/>
</g>
</svg>
