<svg width="21" height="10" viewBox="0 0 21 10" fill="none" xmlns="http://www.w3.org/2000/svg">
<g id="VIP">
<path d="M5.25357 10C4.96199 10 4.72053 9.93545 4.52919 9.80636C4.34695 9.66805 4.19661 9.46058 4.07816 9.18396L0.633942 1.43845C0.506378 1.16183 0.469931 0.917473 0.524602 0.705394C0.579272 0.484094 0.693168 0.313509 0.86629 0.193638C1.03941 0.0645458 1.24898 0 1.495 0C1.80479 0 2.0417 0.0737669 2.20571 0.221301C2.36972 0.359613 2.50639 0.567082 2.61573 0.843706L5.63626 7.91148H4.95288L7.9734 0.829875C8.09186 0.553251 8.23309 0.345782 8.3971 0.207468C8.56111 0.069156 8.7889 0 9.08047 0C9.32649 0 9.52695 0.0645458 9.68185 0.193638C9.84586 0.313509 9.94608 0.484094 9.98253 0.705394C10.0281 0.917473 9.99164 1.16183 9.87319 1.43845L6.42897 9.18396C6.30141 9.46058 6.14651 9.66805 5.96428 9.80636C5.79116 9.93545 5.55425 10 5.25357 10Z" fill="white"/>
<path d="M10.9954 10C10.6491 10 10.3849 9.90318 10.2026 9.70955C10.0204 9.51591 9.92929 9.24389 9.92929 8.8935V1.1065C9.92929 0.756109 10.0204 0.484094 10.2026 0.290457C10.3849 0.0968188 10.6491 0 10.9954 0C11.3325 0 11.5922 0.0968188 11.7744 0.290457C11.9566 0.484094 12.0478 0.756109 12.0478 1.1065V8.8935C12.0478 9.24389 11.9566 9.51591 11.7744 9.70955C11.6013 9.90318 11.3416 10 10.9954 10Z" fill="white"/>
<path d="M13.8029 10C13.4567 10 13.1924 9.90318 13.0102 9.70955C12.828 9.51591 12.7368 9.24389 12.7368 8.8935V1.21715C12.7368 0.857538 12.828 0.585523 13.0102 0.401106C13.2015 0.21669 13.4703 0.124481 13.8166 0.124481H17.1378C18.213 0.124481 19.0421 0.401107 19.6253 0.954357C20.2084 1.49839 20.5 2.25911 20.5 3.23652C20.5 4.21392 20.2084 4.97925 19.6253 5.5325C19.0421 6.08575 18.213 6.36238 17.1378 6.36238H14.8553V8.8935C14.8553 9.24389 14.7642 9.51591 14.582 9.70955C14.4088 9.90318 14.1492 10 13.8029 10ZM14.8553 4.70263H16.7824C17.3291 4.70263 17.7437 4.57815 18.0262 4.32918C18.3177 4.08022 18.4635 3.716 18.4635 3.23652C18.4635 2.75703 18.3177 2.39742 18.0262 2.15768C17.7437 1.91793 17.3291 1.79806 16.7824 1.79806H14.8553V4.70263Z" fill="white"/>
</g>
</svg>
