<svg width="25" height="24" viewBox="0 0 25 24" fill="none" xmlns="http://www.w3.org/2000/svg">
<rect x="0.5" width="24" height="24" rx="8" fill="#00B4D2"/>
<path d="M9.26471 8.1C8.90882 8.1 8.60417 7.97271 8.35074 7.71813C8.0973 7.46354 7.97059 7.1575 7.97059 6.8C7.97059 6.4425 8.0973 6.13646 8.35074 5.88188C8.60417 5.62729 8.90882 5.5 9.26471 5.5C9.62059 5.5 9.92525 5.62729 10.1787 5.88188C10.4321 6.13646 10.5588 6.4425 10.5588 6.8C10.5588 7.1575 10.4321 7.46354 10.1787 7.71813C9.92525 7.97271 9.62059 8.1 9.26471 8.1ZM16.0588 11.35C15.7892 11.35 15.56 11.2552 15.3713 11.0656C15.1826 10.876 15.0882 10.6458 15.0882 10.375C15.0882 10.1042 15.1826 9.87396 15.3713 9.68437C15.56 9.49479 15.7892 9.4 16.0588 9.4C16.3284 9.4 16.5576 9.49479 16.7463 9.68437C16.935 9.87396 17.0294 10.1042 17.0294 10.375C17.0294 10.6458 16.935 10.876 16.7463 11.0656C16.5576 11.2552 16.3284 11.35 16.0588 11.35ZM7.97059 18.5V13.95H7V10.05C7 9.6925 7.12672 9.38646 7.38015 9.13188C7.63358 8.87729 7.93824 8.75 8.29412 8.75H10.2353C10.4725 8.75 10.6882 8.80687 10.8824 8.92062C11.0765 9.03437 11.2328 9.19417 11.3515 9.4L13.6647 13.4137L14.3279 12.4225C14.4142 12.2925 14.5301 12.1896 14.6757 12.1137C14.8213 12.0379 14.975 12 15.1368 12H17.0294C17.299 12 17.5282 12.0948 17.7169 12.2844C17.9056 12.474 18 12.7042 18 12.975V15.25H17.3529V18.5H14.7647V13.885L14.2632 14.6H12.8397L11.2059 11.74V18.5H7.97059Z" fill="white"/>
</svg>
