<svg width="11" height="14" viewBox="0 0 11 14" fill="none" xmlns="http://www.w3.org/2000/svg">
<path id="cruelty_free" d="M3.71429 14C2.82143 14 2.0625 13.6937 1.4375 13.0813C0.8125 12.4688 0.5 11.725 0.5 10.85C0.5 10.4417 0.60119 10.0654 0.803571 9.72125C1.00595 9.37708 1.38095 8.93667 1.92857 8.4C2 8.33 2.06845 8.25708 2.13393 8.18125C2.1994 8.10542 2.28571 8.00333 2.39286 7.875C1.78571 6.965 1.31845 6.01125 0.991071 5.01375C0.66369 4.01625 0.5 3.045 0.5 2.1C0.5 1.42333 0.625 0.904167 0.875 0.5425C1.125 0.180833 1.47619 0 1.92857 0C2.60714 0 3.21429 0.320833 3.75 0.9625C4.28571 1.60417 4.69048 2.19333 4.96429 2.73C5.07143 2.96333 5.16964 3.19958 5.25893 3.43875C5.34821 3.67792 5.42857 3.92583 5.5 4.1825C5.57143 3.92583 5.65179 3.67792 5.74107 3.43875C5.83036 3.19958 5.93452 2.96333 6.05357 2.73C6.31548 2.19333 6.71429 1.60417 7.25 0.9625C7.78571 0.320833 8.39286 0 9.07143 0C9.52381 0 9.875 0.180833 10.125 0.5425C10.375 0.904167 10.5 1.42333 10.5 2.1C10.5 3.045 10.3363 4.01625 10.0089 5.01375C9.68155 6.01125 9.21429 6.965 8.60714 7.875C8.71429 8.00333 8.8006 8.10542 8.86607 8.18125C8.93155 8.25708 9 8.33 9.07143 8.4C9.61905 8.93667 9.99405 9.37708 10.1964 9.72125C10.3988 10.0654 10.5 10.4417 10.5 10.85C10.5 11.725 10.1875 12.4688 9.5625 13.0813C8.9375 13.6937 8.17857 14 7.28571 14C6.75 14 6.31845 13.9417 5.99107 13.825L5.5 13.65L5.00893 13.825C4.68155 13.9417 4.25 14 3.71429 14ZM3.71429 12.6C3.9881 12.6 4.2619 12.5679 4.53571 12.5038C4.80952 12.4396 5.06548 12.3433 5.30357 12.215C5.17262 12.1567 5.05357 12.0575 4.94643 11.9175C4.83929 11.7775 4.78571 11.655 4.78571 11.55C4.78571 11.4567 4.85417 11.375 4.99107 11.305C5.12798 11.235 5.29762 11.2 5.5 11.2C5.70238 11.2 5.87202 11.235 6.00893 11.305C6.14583 11.375 6.21429 11.4567 6.21429 11.55C6.21429 11.655 6.16071 11.7775 6.05357 11.9175C5.94643 12.0575 5.82738 12.1567 5.69643 12.215C5.93452 12.3433 6.19048 12.4396 6.46429 12.5038C6.7381 12.5679 7.0119 12.6 7.28571 12.6C7.78571 12.6 8.20833 12.4308 8.55357 12.0925C8.89881 11.7542 9.07143 11.34 9.07143 10.85C9.07143 10.64 9.0119 10.4358 8.89286 10.2375C8.77381 10.0392 8.59524 9.84083 8.35714 9.6425C8.19048 9.5025 8.05357 9.38 7.94643 9.275C7.83929 9.17 7.66667 8.97167 7.42857 8.68C7.08333 8.27167 6.79762 8.00625 6.57143 7.88375C6.34524 7.76125 5.9881 7.7 5.5 7.7C5.0119 7.7 4.65179 7.76125 4.41964 7.88375C4.1875 8.00625 3.90476 8.27167 3.57143 8.68C3.33333 8.97167 3.16071 9.17 3.05357 9.275C2.94643 9.38 2.80952 9.5025 2.64286 9.6425C2.40476 9.84083 2.22619 10.0392 2.10714 10.2375C1.9881 10.4358 1.92857 10.64 1.92857 10.85C1.92857 11.34 2.10119 11.7542 2.44643 12.0925C2.79167 12.4308 3.21429 12.6 3.71429 12.6ZM4.42857 10.325C4.33333 10.325 4.25 10.2725 4.17857 10.1675C4.10714 10.0625 4.07143 9.94 4.07143 9.8C4.07143 9.66 4.10714 9.5375 4.17857 9.4325C4.25 9.3275 4.33333 9.275 4.42857 9.275C4.52381 9.275 4.60714 9.3275 4.67857 9.4325C4.75 9.5375 4.78571 9.66 4.78571 9.8C4.78571 9.94 4.75 10.0625 4.67857 10.1675C4.60714 10.2725 4.52381 10.325 4.42857 10.325ZM6.57143 10.325C6.47619 10.325 6.39286 10.2725 6.32143 10.1675C6.25 10.0625 6.21429 9.94 6.21429 9.8C6.21429 9.66 6.25 9.5375 6.32143 9.4325C6.39286 9.3275 6.47619 9.275 6.57143 9.275C6.66667 9.275 6.75 9.3275 6.82143 9.4325C6.89286 9.5375 6.92857 9.66 6.92857 9.8C6.92857 9.94 6.89286 10.0625 6.82143 10.1675C6.75 10.2725 6.66667 10.325 6.57143 10.325ZM3.41071 6.8425C3.54167 6.74917 3.69048 6.6675 3.85714 6.5975C4.02381 6.5275 4.20833 6.46333 4.41071 6.405C4.3869 5.845 4.3006 5.28792 4.15179 4.73375C4.00298 4.17958 3.81548 3.675 3.58929 3.22C3.3631 2.75333 3.1131 2.35958 2.83929 2.03875C2.56548 1.71792 2.29167 1.51083 2.01786 1.4175C1.99405 1.4875 1.97321 1.57792 1.95536 1.68875C1.9375 1.79958 1.92857 1.93667 1.92857 2.1C1.92857 2.89333 2.05655 3.69833 2.3125 4.515C2.56845 5.33167 2.93452 6.1075 3.41071 6.8425ZM7.58929 6.8425C8.06548 6.1075 8.43155 5.33167 8.6875 4.515C8.94345 3.69833 9.07143 2.89333 9.07143 2.1C9.07143 1.93667 9.0625 1.79958 9.04464 1.68875C9.02679 1.57792 9.00595 1.4875 8.98214 1.4175C8.70833 1.51083 8.43452 1.71792 8.16071 2.03875C7.88691 2.35958 7.63691 2.75333 7.41071 3.22C7.19643 3.675 7.01488 4.17958 6.86607 4.73375C6.71726 5.28792 6.625 5.845 6.58929 6.405C6.76786 6.45167 6.94048 6.51292 7.10714 6.58875C7.27381 6.66458 7.43452 6.74917 7.58929 6.8425Z" fill="white"/>
</svg>
