<svg width="204" height="139" viewBox="0 0 204 139" fill="none" xmlns="http://www.w3.org/2000/svg">
<path opacity="0.4" d="M202.369 120.508C203.673 117.859 204.048 114.117 202.989 111.334C201.841 108.355 199.769 105.532 196.744 104.257C193.937 103.065 190.478 102.489 187.541 103.696C180.36 106.649 173.042 109.356 165.617 111.629C164.608 111.933 163.595 112.228 162.579 112.513C162.305 109.335 162.288 106.11 162.127 102.951L161.782 95.3821C161.68 93.1322 161.699 90.8357 161.287 88.6245C160.74 85.5022 160.194 83.3844 158.608 80.6187C157.117 78.0283 154.702 76.0321 152.104 74.6237C150.562 73.7619 148.861 73.2189 147.101 73.0269C143.754 72.7064 142.03 72.9238 138.719 73.6778C137.027 74.0898 135.349 74.6342 133.662 75.083C131.7 75.6056 129.749 76.107 127.808 76.5875C124.469 77.4197 121.125 78.215 117.76 78.933L117.621 78.3672C116.947 75.5985 116.332 72.8152 115.774 70.0175C115.131 66.3943 114.671 62.7447 114.029 59.1215C113.535 56.3563 113.075 53.5322 111.907 50.9526C111.181 49.3766 110.481 47.679 109.421 46.2787C108.33 44.7299 107.04 43.3311 105.584 42.1181C102.909 39.9711 99.7743 38.4637 96.418 37.7109C95.3246 37.5049 94.215 37.3919 93.1013 37.3732C91.9056 37.262 90.7021 37.252 89.5035 37.3433C84.3377 37.9013 80.0042 39.6988 75.4497 42.0953C73.3919 43.1784 71.4925 44.5074 69.5427 45.7587C69.4589 45.0824 69.3752 44.4061 69.2653 43.7336C68.1535 36.9659 67.1765 30.1767 66.1448 23.3909C65.9073 21.8053 65.6632 20.218 65.4123 18.6288C65.1496 16.9829 64.8558 15.3324 64.4825 13.7107C64.0838 11.9465 63.2565 10.4008 62.4207 8.78143C62.2665 8.46441 62.0905 8.1585 61.8938 7.86592C61.1144 6.78027 60.2367 5.76841 59.2716 4.84285C58.6369 4.29783 57.9536 3.81133 57.2303 3.3893C56.129 2.59698 54.8978 2.00038 53.5907 1.62564C51.6298 0.953552 49.5572 0.656436 47.4811 0.749883C46.7076 0.817616 45.9405 0.947362 45.1872 1.13779C44.3724 1.27111 43.5646 1.44543 42.767 1.6601C40.4579 2.3656 38.3023 3.62295 36.1759 4.73437C34.6632 5.52631 33.1859 6.3765 31.744 7.28493C28.9599 9.02711 26.2706 10.916 23.6875 12.9435C17.7707 17.5336 12.2139 22.5624 6.19826 27.0296C3.55342 28.9898 1.53443 31.6343 0.890866 34.9194C0.323204 37.7958 0.905801 41.521 2.67517 43.9173C4.55378 46.5034 7.29135 48.6851 10.5607 49.1567C13.6134 49.5958 17.054 49.2445 19.6144 47.3441C27.3862 41.5741 34.4867 34.8539 42.44 29.4288C42.9668 33.0569 43.4765 36.6948 44.0373 40.3033C44.3954 42.5964 44.8584 44.8852 45.106 47.2026C45.2092 48.2664 45.3275 49.3664 45.4992 50.4414C45.8075 52.7935 46.3044 55.1162 46.985 57.387C47.3889 58.5152 47.867 59.6153 48.4162 60.68C48.8924 61.7873 49.4734 62.8464 50.1515 63.8428C51.1384 65.2431 52.2894 66.5206 53.5805 67.6484C54.6532 68.4832 55.7835 69.242 56.9633 69.9193C57.2696 70.1071 57.5895 70.2722 57.9205 70.413C61.2153 71.7742 64.8616 72.5174 68.4291 71.9639C70.5978 71.6797 72.7288 71.1523 74.7816 70.3916C77.1755 69.4201 79.4888 68.2597 81.6992 66.9216C84.0175 65.5144 86.2058 63.9406 88.558 62.6318C88.9739 62.4599 89.3988 62.294 89.8243 62.139L89.851 62.1854C90.1957 64.357 90.4646 66.5441 90.8245 68.7126C91.4684 72.5541 92.2148 76.3871 93.0366 80.1936C93.6575 83.1105 94.35 86.0142 95.0789 88.9026C95.4487 90.3708 95.8329 91.8345 96.2314 93.2937C96.7655 95.2047 97.225 97.0744 98.3698 98.7687C99.0452 99.6608 99.7861 100.501 100.587 101.284C101.478 101.985 102.429 102.608 103.429 103.147C103.967 103.359 104.515 103.542 105.073 103.694C105.631 103.911 106.202 104.092 106.783 104.238C108.192 104.452 109.617 104.537 111.043 104.493C112.455 104.443 113.862 104.294 115.254 104.047C120.585 103.225 125.858 102.038 131.1 100.796C133.229 100.29 135.354 99.7652 137.474 99.2228L137.707 104.267C137.914 108.725 137.874 113.285 138.6 117.692C139.063 120.52 139.546 123.443 140.762 126.068C142.237 129.24 143.758 132.257 146.494 134.563C149.818 137.39 154.097 138.23 158.357 137.996C161.182 137.842 164.02 137.152 166.761 136.529C169.086 135.989 171.389 135.332 173.67 134.626C178.343 133.183 182.953 131.53 187.532 129.816C190.114 128.847 192.687 127.854 195.234 126.804C198.276 125.525 200.881 123.554 202.369 120.508Z" fill="#F8A060"/>
</svg>
