<svg width="236" height="236" viewBox="0 0 236 236" fill="none" xmlns="http://www.w3.org/2000/svg">
<path opacity="0.4" d="M235.983 211.743C235.025 204.276 234.033 196.814 232.932 189.364C230.965 176.056 228.643 162.783 225.604 149.679C222.685 136.751 218.852 124.055 214.136 111.692C209.032 98.5592 203.04 85.8011 195.305 74.0555C191.195 67.8131 186.694 61.8488 181.829 56.2C176.738 50.295 171.153 44.747 164.627 40.4747C163.186 39.5233 161.677 38.6822 160.114 37.9582C157.708 36.7865 155.215 35.8081 152.66 35.0321C150.023 34.3668 147.339 33.9128 144.632 33.6743C143.029 33.4958 141.415 33.4429 139.804 33.5163C130.945 33.885 122.544 36.5888 114.728 40.7732C111.732 42.38 108.874 44.2418 106.185 46.3388L104.791 47.4332C103.071 43.6409 101.196 39.9071 99.1201 36.3137C95.154 29.3127 90.4112 22.801 84.9854 16.9074C81.934 13.7034 78.5955 10.7977 75.0137 8.22838C71.437 5.69075 67.5432 3.65355 63.4365 2.17119C61.9275 1.5929 60.3713 1.15225 58.7861 0.854418C56.1792 0.312542 53.5275 0.0264479 50.8672 0C48.2607 0.0644635 45.6664 0.385858 43.1204 0.959756C41.7026 1.27345 40.3151 1.7161 38.9746 2.28239C36.7105 3.15024 34.5186 4.20318 32.4205 5.43095C30.3826 6.7636 28.4344 8.23388 26.5888 9.83192C23.9538 12.1189 21.5888 14.7114 19.5416 17.557C17.346 20.3881 15.3822 23.3985 13.6698 26.5579C11.7575 30.2795 10.0722 34.1181 8.62374 38.0519C6.03397 44.8753 4.06647 51.928 2.74623 59.1203C1.22403 67.2608 0.328653 75.5105 0.0683599 83.7938C-0.396106 99.5951 1.54203 115.566 4.79329 131.016C7.95081 145.62 12.246 159.943 17.6378 173.85C18.2331 176.047 19.3771 178.05 20.9579 179.661L23.567 181.715C26.4971 183.646 30.2071 183.81 33.51 183.044C36.5835 182.33 39.6512 179.725 41.2224 176.992C42.1479 175.528 42.6763 173.84 42.7534 172.1C43.1392 170.354 43.058 168.535 42.5183 166.833C40.9165 162.631 39.3874 158.397 37.931 154.133C32.9758 139.668 29.3571 124.761 27.1221 109.608C25.4731 96.783 25.3652 83.8 26.801 70.9479C28.1051 61.8618 30.4273 52.9586 33.7221 44.4134C35.3561 40.6395 37.3558 37.042 39.6914 33.6743C41.0518 31.993 42.5437 30.4273 44.1525 28.9925C45.1555 28.2895 46.2013 27.6523 47.2834 27.0846C48.1339 26.7937 48.9991 26.5495 49.8752 26.3531C50.7651 26.3004 51.6574 26.3004 52.5473 26.3531C53.7869 26.6191 55.0073 26.971 56.2 27.4065C58.1796 28.4018 60.0763 29.5605 61.871 30.8711C65.1568 33.7055 68.159 36.8657 70.8335 40.305C76.6078 48.2525 81.0575 57.0954 84.9109 66.1607C85.1173 66.6698 85.3237 67.179 85.5244 67.6881C84.5114 69.1356 83.5289 70.6006 82.577 72.0832C78.5173 78.4272 75.3922 85.2334 72.6054 92.2445C70.1842 98.3556 68.3055 104.676 66.9917 111.13C63.7368 127.499 63.092 144.296 65.0822 160.875C66.0815 169.796 67.5516 178.656 69.486 187.415C71.0056 194.204 72.6398 201.034 75.2832 207.471C76.9003 211.421 78.5403 215.307 80.9773 218.813C82.4471 220.986 84.0662 223.049 85.8226 224.987C87.5935 226.793 89.5118 228.441 91.5567 229.915C94.5173 232.038 97.8152 233.622 101.305 234.597C103.611 235.213 105.965 235.626 108.341 235.832C109.588 235.989 110.847 236.036 112.102 235.972C114.406 235.862 116.695 235.543 118.943 235.018C121.143 234.413 123.276 233.577 125.308 232.525C127.258 231.479 129.076 230.194 130.721 228.698C132.407 227.168 133.89 225.418 135.131 223.495C136.525 221.36 137.621 219.038 138.388 216.595C139.299 213.956 139.534 211.111 139.896 208.361C140.278 204.556 140.448 200.732 140.406 196.908C140.555 180.264 138.829 163.625 136.008 147.251C133.271 131.756 129.546 116.461 124.855 101.462C121.902 91.8583 118.685 82.3073 115.181 72.8791C116.779 71.3185 118.444 69.8203 120.176 68.3845C123.341 66.0143 126.727 63.9678 130.285 62.2747C132.861 61.2663 135.521 60.4985 138.233 59.9806C140.043 59.8255 141.862 59.8138 143.674 59.9455C145.137 60.2406 146.576 60.6455 147.981 61.1569C149.892 62.1249 151.722 63.2523 153.451 64.5278C158.853 69.0634 163.583 74.5295 167.924 80.1302C169.69 82.5023 171.389 84.9174 173.022 87.3754C178.885 96.3568 183.932 105.865 188.103 115.783C190.603 121.967 192.841 128.254 194.817 134.645C198.61 147.085 201.702 159.737 204.078 172.539C206.423 184.828 208.27 197.23 209.921 209.642L210.196 211.743C210.193 214.08 210.801 216.375 211.957 218.392L213.975 221.054C216.303 223.641 219.761 224.759 223.098 224.911C226.309 225.057 229.979 223.337 232.221 221.054C234.519 218.504 235.858 215.205 236 211.743H235.983ZM90.7081 125.24C91.9415 116.585 94.1464 108.104 97.2794 99.9638C99.9917 108.233 102.492 116.573 104.734 124.994C108.17 137.885 110.824 150.98 112.681 164.205C113.553 171.274 114.161 178.373 114.442 185.49C114.595 189.391 114.652 193.307 114.614 197.235C114.579 200.343 114.556 203.48 114.281 206.599C114.13 207.364 113.939 208.12 113.708 208.864C113.673 208.928 113.633 208.993 113.593 209.057L113.238 209.262C112.842 209.385 112.441 209.496 112.039 209.596C111.317 209.596 110.594 209.596 109.872 209.596C109.063 209.419 108.265 209.198 107.48 208.934C106.878 208.612 106.288 208.267 105.714 207.887C104.796 207.039 103.931 206.134 103.123 205.177C101.757 203.139 100.566 200.985 99.5616 198.739C97.5317 193.414 96.1211 187.842 94.8654 182.289C93.3458 175.705 92.0843 169.062 91.1382 162.391C89.5446 150.069 89.4003 137.597 90.7081 125.24Z" fill="#F8A6D8"/>
</svg>
