<svg width="186" height="137" viewBox="0 0 186 137" fill="none" xmlns="http://www.w3.org/2000/svg">
<path opacity="0.4" d="M5.5188 120.95C10.2534 122.453 14.9941 123.935 19.7581 125.348C28.2682 127.872 36.8561 130.173 45.5419 131.998C54.0896 133.847 62.7521 135.084 71.4614 135.7C80.7387 136.298 90.039 136.261 99.2182 134.898C104.096 134.175 108.917 133.141 113.65 131.801C118.599 130.396 123.472 128.597 127.843 125.88C128.813 125.282 129.736 124.614 130.603 123.88C131.974 122.766 133.252 121.546 134.427 120.233C135.559 118.84 136.577 117.36 137.472 115.807C138.025 114.898 138.505 113.946 138.909 112.962C141.152 107.558 141.871 101.78 141.54 95.9398C141.412 93.7002 141.093 91.4722 140.586 89.2797L140.319 88.1416C143.066 88.1669 145.822 88.0832 148.549 87.8404C153.841 87.4142 159.056 86.3871 164.092 84.7794C166.858 83.8445 169.525 82.6549 172.058 81.2262C174.571 79.7917 176.873 78.0283 178.902 75.9832C179.668 75.2411 180.364 74.4325 180.983 73.5668C182.032 72.1576 182.941 70.6505 183.696 69.066C184.383 67.4884 184.912 65.8467 185.276 64.1637C185.483 63.2281 185.604 62.2748 185.638 61.3152C185.748 59.7191 185.728 58.1147 185.576 56.5179C185.346 54.9279 185.008 53.3533 184.565 51.8046C183.929 49.5919 183.035 47.4558 181.902 45.4395C180.819 43.3385 179.563 41.3262 178.149 39.4231C176.454 37.2439 174.626 35.168 172.675 33.2074C169.312 29.7602 165.639 26.6217 161.703 23.8316C157.255 20.657 152.568 17.8272 147.684 15.368C138.358 10.6959 128.262 7.41431 118.113 5.06328C108.497 2.89147 98.732 1.47844 88.9118 0.837647C87.4312 0.582676 85.9149 0.710371 84.5112 1.20821L82.5565 2.19815C80.586 3.41438 79.4563 5.58874 78.9966 7.77825C78.5691 9.81587 79.2743 12.3757 80.4727 14.0759C81.0913 15.0367 81.9546 15.8224 82.9745 16.3525C83.9117 17.0687 85.0228 17.526 86.1915 17.6765C89.1513 17.8866 92.1095 18.1489 95.0662 18.4632C105.1 19.5208 115.025 21.5008 124.714 24.3773C132.847 26.9571 140.645 30.5029 147.936 34.936C153.01 38.2431 157.692 42.1085 161.889 46.4563C163.693 48.4835 165.289 50.6804 166.655 53.0144C167.282 54.296 167.804 55.6241 168.216 56.9858C168.357 57.7814 168.448 58.5844 168.487 59.3897C168.424 59.9796 168.33 60.5651 168.204 61.144C167.988 61.6912 167.739 62.225 167.46 62.7429C166.957 63.4106 166.407 64.043 165.814 64.6356C164.668 65.5433 163.447 66.356 162.164 67.0655C159.554 68.2434 156.829 69.161 154.027 69.8049C147.666 71.0499 141.137 71.2534 134.641 71.0382C134.279 71.0201 133.917 71.002 133.557 70.9805C132.972 69.9718 132.369 68.9765 131.746 67.9947C129.079 63.8013 125.876 60.0386 122.456 56.4214C119.472 53.2733 116.213 50.3915 112.716 47.8106C103.827 41.3111 93.9551 36.2541 83.4817 32.8347C77.8657 30.9518 72.1556 29.3677 66.3763 28.0893C61.8916 27.1107 57.3505 26.1893 52.7634 25.9809C49.95 25.8499 47.1687 25.7506 44.3934 26.234C42.6847 26.5093 40.9998 26.9044 39.3516 27.4163C37.7786 27.9738 36.2588 28.6632 34.8085 29.4771C32.7151 30.6583 30.8502 32.1912 29.2962 34.008C28.2861 35.2167 27.3844 36.5103 26.6008 37.8746C26.1594 38.5771 25.7813 39.3172 25.4707 40.0863C24.8958 41.4952 24.4502 42.9539 24.1391 44.4449C23.8897 45.9297 23.7965 47.4383 23.8609 48.9467C23.9446 50.4046 24.2082 51.8498 24.6458 53.2501C25.0924 54.6846 25.7267 56.0581 26.5327 57.3354C27.4221 58.7633 28.5068 60.065 29.7556 61.203C31.0814 62.4825 32.7179 63.4142 34.2633 64.3952C36.4337 65.682 38.6743 66.8473 40.9745 67.8855C50.8922 72.6032 61.3279 76.1973 71.9105 79.0628C81.9429 81.7342 92.1312 83.7583 102.41 85.1224C108.978 86.0261 115.588 86.7572 122.203 87.2826C122.693 88.6728 123.126 90.0856 123.504 91.521C124.042 94.0741 124.325 96.6693 124.348 99.2691C124.235 101.091 123.955 102.896 123.511 104.663C123.1 105.789 122.601 106.881 122.019 107.928C121.435 108.722 120.793 109.47 120.096 110.168C118.986 111.043 117.802 111.824 116.558 112.504C112.342 114.475 107.756 115.786 103.197 116.826C101.287 117.223 99.3693 117.568 97.4446 117.861C90.4402 118.871 83.3469 119.248 76.253 118.985C71.8575 118.761 67.473 118.352 63.0994 117.758C54.6007 116.568 46.1704 114.899 37.8498 112.761C29.8438 110.747 21.91 108.403 14.0233 105.939L12.6896 105.52C11.2925 104.868 9.75024 104.594 8.22205 104.724L6.06743 105.192C3.87221 105.865 2.24181 107.624 1.22271 109.578C0.242203 111.459 0.25123 114.133 0.993465 116.109C1.88073 118.194 3.48217 119.912 5.51401 120.96L5.5188 120.95ZM97.6781 58.0779C102.514 61.2226 106.975 64.9005 110.975 69.0389C105.273 68.3622 99.5875 67.539 93.9248 66.5387C85.2557 65.01 76.682 62.9566 68.2525 60.3903C63.7799 58.9459 59.3632 57.3355 55.0268 55.5246C52.6498 54.5312 50.2911 53.4767 47.9508 52.3612C46.1009 51.4765 44.2303 50.5905 42.4404 49.5583C42.0247 49.2552 41.6256 48.9304 41.2447 48.5854C41.2157 48.5469 41.1883 48.505 41.161 48.4631L41.1373 48.1934C41.1738 47.9224 41.2189 47.6513 41.271 47.3835C41.4719 46.9512 41.6728 46.5188 41.8737 46.0865C42.204 45.652 42.5581 45.2358 42.9343 44.8397C43.2944 44.5689 43.6652 44.3115 44.0523 44.0742C44.8147 43.7604 45.5969 43.4941 46.3944 43.2769C47.9935 43.0267 49.6135 42.9127 51.2367 42.9363C54.9878 43.2027 58.7138 43.908 62.3862 44.701C66.7484 45.6227 71.0737 46.715 75.3289 48.0041C83.145 50.4772 90.6479 53.8591 97.6781 58.0779Z" fill="#F8A6D8"/>
</svg>
