<svg width="279" height="254" viewBox="0 0 279 254" fill="none" xmlns="http://www.w3.org/2000/svg">
<path opacity="0.34" d="M121.09 136.79C126.578 133.037 132.434 129.831 138.571 127.22L134.613 128.861C140.201 126.504 146.081 124.882 152.101 124.037L147.694 124.62C152.094 124.058 156.55 124.058 160.95 124.62L156.543 124.037C159.876 124.472 163.139 125.322 166.253 126.566L162.288 124.925C165.451 126.242 168.434 127.944 171.166 129.991L167.809 127.447C170.512 129.495 172.943 131.867 175.044 134.509L172.454 131.22C174.299 133.561 175.84 136.12 177.041 138.836L175.37 134.949C176.392 137.335 177.097 139.84 177.468 142.402C177.265 140.981 177.068 139.539 176.875 138.075C177.171 140.34 177.171 142.632 176.875 144.896C177.077 143.475 177.275 142.033 177.468 140.569C177.125 142.895 176.478 145.169 175.543 147.333L177.215 143.446C176.235 145.667 174.976 147.757 173.467 149.67C174.335 148.576 175.196 147.475 176.064 146.374C174.279 148.591 172.226 150.588 169.95 152.32L173.308 149.769C169.842 152.353 166.051 154.486 162.028 156.114L165.993 154.473C159.767 156.975 153.237 158.673 146.566 159.524L150.979 158.941C141.624 160.229 132.136 160.298 122.761 159.147L127.168 159.73C120.917 158.928 114.799 157.328 108.971 154.97L112.936 156.611C108.645 154.834 104.598 152.535 100.889 149.769L104.239 152.32C100.895 149.765 97.8861 146.813 95.2815 143.532L97.879 146.828C94.9718 143.121 92.5619 139.062 90.7088 134.751L92.3801 138.637C90.242 133.538 88.7852 128.189 88.0462 122.723C88.2488 124.172 88.4465 125.617 88.6395 127.056C87.7929 120.813 87.7929 114.487 88.6395 108.244C88.4369 109.693 88.2391 111.138 88.0462 112.578C88.8896 106.396 90.5585 100.35 93.0096 94.5961L91.3382 98.4823C93.4884 93.4798 96.2718 88.7631 99.6227 84.4438L97.0325 87.7403C100.894 82.8924 105.359 78.5389 110.324 74.7817L106.967 77.3251C112.803 72.9417 119.183 69.3036 125.952 66.4979L121.987 68.139C130.324 64.7266 139.081 62.4049 148.035 61.2335L143.628 61.816C153.809 60.4804 164.125 60.4804 174.306 61.816L169.9 61.2335C179.906 62.5777 189.69 65.2051 199 69.0484L195.035 67.4073C203.918 71.0666 212.288 75.8274 219.939 81.5736L216.582 79.0302C223.141 83.9649 229.039 89.6939 234.135 96.081L231.538 92.7916C235.876 98.2802 239.479 104.292 242.261 110.681L240.589 106.795C243.117 112.706 244.851 118.915 245.748 125.266L245.162 120.939C246.075 127.819 246.058 134.788 245.111 141.663C245.307 140.242 245.509 138.779 245.705 137.337C244.58 145.211 242.415 152.909 239.265 160.234L240.936 156.341C237.411 164.497 232.835 172.176 227.319 179.189L229.91 175.893C222.674 185.128 213.731 193.014 204.369 200.126L207.726 197.583C198.105 204.985 187.559 211.149 176.346 215.926L180.304 214.285C172.187 217.689 163.652 220.037 154.915 221.269L159.322 220.686C152.217 221.603 145.068 221.503 137.919 221.198C131.574 220.928 125.236 220.402 118.934 219.578L123.34 220.161C112.675 218.812 102.174 216.416 91.9967 213.006C89.3871 212.111 86.8017 211.133 84.2404 210.072L88.1981 211.713C79.5642 208.162 71.4263 203.545 63.9814 197.973C65.0956 198.826 66.2147 199.674 67.3386 200.517C60.8916 195.643 55.1004 189.985 50.104 183.679L52.6942 186.976C48.6603 181.838 45.1693 176.311 42.2753 170.479C41.4577 168.838 40.6835 167.168 39.96 165.506L41.6314 169.399C38.5516 162.176 36.2597 154.653 34.794 146.956C34.3816 144.825 34.027 142.637 33.7231 140.47C33.9257 141.891 34.1235 143.333 34.3164 144.796C33.0268 135.177 32.7843 125.451 33.5929 115.782C33.8003 113.153 34.0849 110.529 34.4467 107.91C34.2537 109.331 34.0559 110.773 33.8534 112.237C35.1011 102.939 37.3022 93.7897 40.4231 84.9269C41.2286 82.6677 42.1041 80.4298 43.0495 78.2132L41.3781 82.1065C45.1187 73.5182 49.9649 65.4362 55.7982 58.0578L53.2007 61.3543C59.3679 53.5427 66.515 46.5271 74.4726 40.4742L71.1154 43.0105C77.6348 38.071 84.6681 33.8225 92.098 30.3361C93.9883 29.3495 95.59 27.904 96.7503 26.1374C98.2086 24.5746 99.2305 22.6681 99.7168 20.603C100.406 18.5037 100.509 16.261 100.013 14.1095C99.9132 11.9566 99.2342 9.86819 98.0454 8.05651C95.7663 4.58242 92.3657 1.5275 88.1402 0.5755L83.7267 3.91643e-05C80.7873 -0.00630809 77.8996 0.758967 75.3626 2.21663C64.4972 7.42506 54.4111 14.0729 45.3865 21.9742C36.3444 29.8563 28.4339 38.9071 21.8716 48.8788C15.084 59.25 9.87737 70.54 6.4169 82.3906C3.21072 93.3801 1.18585 104.669 0.375398 116.073C-0.488774 128.256 0.140358 140.497 2.24933 152.533C4.36194 164.862 8.37796 176.802 14.1587 187.942C16.7369 192.99 19.7685 197.802 23.2174 202.321C27.5641 208.198 32.4701 213.655 37.869 218.619C43.6401 223.777 49.8952 228.387 56.5507 232.387C63.8162 236.605 71.4539 240.172 79.371 243.044C96.5188 249.509 115.034 252.394 133.296 253.53C138.361 253.85 143.426 254.013 148.49 253.999C155.367 253.926 162.22 253.212 168.959 251.868C174.521 250.786 179.98 249.241 185.275 247.25C191.759 244.871 198.07 242.064 204.166 238.845C215.345 232.885 225.699 225.347 235.322 217.212C244.67 209.388 252.92 200.382 259.857 190.428C262.865 186.073 265.525 181.496 267.816 176.738C270.763 170.763 273.202 164.558 275.109 158.188C276.85 151.88 278.017 145.432 278.596 138.921C279.135 133.724 279.135 128.488 278.596 123.291C278.031 116.923 276.805 110.629 274.935 104.507C273.079 98.7814 270.691 93.2356 267.801 87.9392C264.772 82.6203 261.277 77.5712 257.353 72.8493C254.376 69.1152 251.111 65.6118 247.586 62.3702C239.408 54.8055 230.216 48.3733 220.265 43.2521C210.289 38.0716 199.678 34.1701 188.69 31.6434C177.492 29.1025 166.005 27.9969 154.517 28.354C148.14 28.6294 141.788 29.3153 135.503 30.4072C130.6 31.2201 125.764 32.3811 121.032 33.8813C110.403 37.2559 99.9556 42.0017 91.0054 48.6301C85.9407 52.3884 81.0713 56.2746 76.8169 60.9138C72.9284 65.1004 69.479 69.6608 66.521 74.526C63.7053 79.3775 61.358 84.477 59.5099 89.7579C58.0285 93.8939 56.941 98.1559 56.2613 102.489C55.281 108.04 54.7968 113.665 54.8142 119.298C54.967 124.983 55.6597 130.642 56.8835 136.2C58.1588 141.533 59.9768 146.726 62.31 151.702C63.9904 155.528 66.1174 159.149 68.6482 162.494C72.0126 166.927 75.4856 171.147 79.8775 174.628C84.9422 178.67 90.1734 182.18 96.1932 184.723C102.705 187.459 109.116 189.697 116.09 190.798C122.963 191.962 129.926 192.532 136.899 192.503C143.664 192.361 150.41 191.749 157.086 190.67C161.788 189.974 166.416 188.859 170.913 187.338C176.573 185.526 181.993 183.055 187.055 179.978C190.107 178.04 192.992 175.859 195.679 173.456C198.181 171.067 200.447 168.45 202.444 165.641C203.738 163.935 204.835 162.093 205.715 160.149C207.162 156.924 208.652 153.656 209.282 150.16C209.911 146.665 210.476 142.921 210.157 139.305C209.943 135.582 209.27 131.899 208.153 128.335C205.759 121.47 201.985 115.148 197.054 109.743C195.458 107.947 193.697 106.299 191.794 104.819C188.932 102.452 185.864 100.334 182.627 98.4894C179.227 96.6825 175.661 95.1957 171.976 94.0491C168.156 92.8626 164.133 92.4151 160.175 91.9177C153.157 91.1078 145.929 91.9177 139.041 93.3386C132.153 94.7595 125.619 97.3384 119.281 100.216C114.074 102.613 109.083 105.439 104.362 108.663C102.471 109.65 100.87 111.095 99.7096 112.862C98.2513 114.424 97.2294 116.331 96.7431 118.396C96.0574 120.496 95.955 122.738 96.4464 124.89C96.5446 127.043 97.2238 129.132 98.4145 130.943C100.701 134.417 104.094 137.479 108.327 138.424C112.56 139.368 117.451 139.248 121.097 136.782L121.09 136.79Z" fill="white"/>
</svg>
