<svg width="130" height="137" viewBox="0 0 130 137" fill="none" xmlns="http://www.w3.org/2000/svg">
<path id="Vector" opacity="0.34" d="M60.1312 59.0839C61.3609 62.1016 62.292 65.2402 62.9104 68.453L62.5321 66.3853C63.0853 69.3086 63.2577 72.2976 63.0448 75.2748L63.2178 73.0994C63.0353 75.2695 62.5791 77.4092 61.8606 79.4651L62.5899 77.4083C62.041 78.9646 61.3011 80.4451 60.3881 81.814L61.5777 80.0768C60.6248 81.4619 59.5069 82.7211 58.2501 83.8247L59.8082 82.4713C58.5539 83.5611 57.1722 84.487 55.6957 85.2272L57.5314 84.3181C56.2244 84.966 54.8451 85.4456 53.4254 85.7458L55.452 85.3388C54.2084 85.5868 52.9402 85.6705 51.6789 85.5878C52.378 85.6351 53.0869 85.687 53.8054 85.7433C52.694 85.6553 51.5997 85.4219 50.549 85.049C51.2067 85.2909 51.875 85.5327 52.554 85.7744C51.4785 85.3728 50.4593 84.8308 49.5218 84.1616L51.2062 85.3599C50.2464 84.6635 49.3771 83.8459 48.6184 82.9264C49.0519 83.4548 49.4895 83.9804 49.9264 84.5094C49.0505 83.4261 48.3073 82.237 47.7132 80.9679L48.5873 82.8398C47.7084 80.9126 47.0785 78.8746 46.7131 76.7769L47.0907 78.8481C46.5334 75.6035 46.3914 72.2946 46.668 69.0042L46.4943 71.1831C46.8375 66.559 47.7759 61.9954 49.2851 57.6106L48.5558 59.6675C49.5785 56.7471 50.9689 53.9721 52.6917 51.413L51.5021 53.1501C52.79 51.2702 54.3018 49.5606 56.0022 48.0611L54.4414 49.4103C56.0036 48.0644 57.7211 46.9199 59.5546 46.0031L57.7147 46.915C59.7826 45.8962 61.9674 45.1521 64.2154 44.701L62.1888 45.108C64.8422 44.6002 67.5453 44.4452 70.2308 44.6466C69.5181 44.5964 68.8081 44.5443 68.1009 44.4904C71.1685 44.7194 74.1889 45.3634 77.0832 46.4055C76.4119 46.1606 75.7425 45.9186 75.0747 45.6794C77.9399 46.7137 80.6556 48.1306 83.1519 49.8935L81.4676 48.6952C83.6359 50.2371 85.6029 52.0539 87.3221 54.1029L86.0134 52.5233C87.9327 54.8713 89.5541 57.4589 90.8397 60.2256L89.969 58.3544C91.4643 61.6035 92.5482 65.0376 93.1946 68.5743L92.817 66.5031C93.5927 70.8542 93.8046 75.2962 93.4472 79.7151L93.6202 77.5397C93.2155 82.5649 92.1592 87.5193 90.4791 92.2726L91.2084 90.2158C89.542 94.8846 87.2858 99.3157 84.4975 103.396L85.687 101.659C83.0303 105.552 79.9003 109.087 76.3733 112.177L77.9314 110.823C74.9037 113.471 71.5645 115.72 67.9931 117.517L69.8296 116.605C66.7649 118.129 63.5254 119.248 60.1904 119.933L62.217 119.526C59.1357 120.138 55.9935 120.339 52.8694 120.123L54.9952 120.282C51.6168 120.02 48.2915 119.303 45.1057 118.148C45.7641 118.387 46.4421 118.633 47.1107 118.874C43.466 117.532 40.0126 115.709 36.8373 113.45L38.5251 114.649C34.9917 112.126 31.794 109.147 29.0104 105.784L30.3191 107.364C26.6502 102.949 23.8006 97.8511 21.3638 92.6309L22.2344 94.5021C19.6854 89.1279 17.8219 83.436 16.689 77.5648L17.0673 79.6325C16.2731 75.3879 16.0261 71.0499 16.3325 66.7287L16.1595 68.9041C16.4494 65.3986 17.2288 61.9757 18.1066 58.5738C18.8852 55.5539 19.7852 52.5635 20.8239 49.6209L20.0946 51.6777C21.8303 46.6929 24.0498 41.894 26.7197 37.3534C27.4143 36.1913 28.146 35.0492 28.9148 33.9271L27.726 35.6608C30.3055 31.8758 33.3433 28.4377 36.7658 25.4295C36.2447 25.8778 35.7253 26.3289 35.2077 26.7828C38.195 24.1829 41.4893 21.9776 45.0116 20.22L43.1725 21.1284C46.0385 19.7141 49.035 18.6002 52.1157 17.804C52.983 17.5784 53.8594 17.3766 54.7272 17.1983L52.6972 17.6047C56.4612 16.8609 60.2878 16.526 64.1129 16.6057C65.1728 16.6246 66.2538 16.677 67.3195 16.7517C66.6204 16.7043 65.9115 16.6525 65.193 16.5962C69.9177 16.956 74.5865 17.8296 79.1204 19.2023C80.3542 19.5695 81.5779 19.9732 82.7914 20.4136C82.1327 20.1763 81.4644 19.9345 80.7864 19.6882C85.0976 21.2339 89.2408 23.2223 93.1529 25.6233C94.1491 26.2401 95.1279 26.8884 96.0895 27.5681L94.4017 26.3691C98.1192 29.0397 101.482 32.1898 104.407 35.7423L103.1 34.1593C106.198 37.9162 108.816 42.0628 110.891 46.5005L110.024 44.6301C111.715 48.2638 113.023 52.074 113.927 55.997C114.204 57.0053 114.73 57.9217 115.455 58.6587C116.052 59.5182 116.858 60.203 117.794 60.6468C118.725 61.1916 119.786 61.4691 120.864 61.4502C121.902 61.6212 122.969 61.5077 123.955 61.1213C125.847 60.3804 127.654 59.0582 128.541 57.1259L129.268 55.0649C129.572 53.6539 129.502 52.1891 129.066 50.8224C127.692 45.0741 125.55 39.5536 122.702 34.4153C119.864 29.2705 116.353 24.5502 112.264 20.3836C108.007 16.0681 103.15 12.4184 97.8457 9.55016C92.927 6.89173 87.7443 4.77012 82.3824 3.22005C76.6539 1.56483 70.7449 0.620894 64.7824 0.40852C58.6795 0.168059 52.5673 0.881269 46.6568 2.52351C43.9826 3.24781 41.3746 4.21385 38.8637 5.41014C35.613 6.89944 32.5051 8.69999 29.5821 10.7875C26.5286 13.034 23.687 15.5687 21.0954 18.3577C18.3377 21.4176 15.8528 24.7225 13.6707 28.2323C8.82814 35.8093 5.55517 44.4076 3.14259 53.0621C2.47136 55.4619 1.87478 57.8776 1.36298 60.3114C0.693841 63.6211 0.332837 66.9852 0.284812 70.3584C0.231718 73.1397 0.41046 75.9183 0.819102 78.664C1.29085 82.0199 1.98527 85.3369 2.89764 88.5921C4.59901 94.5674 7.1379 100.307 10.0365 105.757C12.8151 111.042 16.2706 115.921 20.3126 120.266C22.0843 122.154 23.9972 123.897 26.0342 125.482C28.5855 127.505 31.2981 129.308 34.1442 130.873C36.978 132.351 39.937 133.568 42.9865 134.509C45.4125 135.296 47.9128 135.829 50.4491 136.1C53.5472 136.477 56.678 136.528 59.7926 136.254C62.7163 135.945 65.6087 135.363 68.4334 134.514C71.2831 133.601 74.0518 132.436 76.7079 131.033C78.7956 129.983 80.8027 128.771 82.7114 127.408C87.1605 124.251 91.1728 120.492 94.6369 116.234C98.1317 111.971 101.081 107.271 103.413 102.252C105.772 97.1325 107.476 91.7288 108.482 86.1755C109.003 83.0849 109.326 79.9646 109.449 76.8348C109.562 74.3975 109.503 71.9568 109.271 69.5317C108.749 64.0838 107.552 58.5831 105.304 53.6101C104.028 50.7952 102.671 48.0611 100.892 45.5457C99.291 43.2521 97.4668 41.1313 95.4467 39.2155C93.4186 37.3694 91.2242 35.723 88.892 34.2979C87.0689 33.1654 85.1453 32.2093 83.146 31.4418C80.596 30.406 77.9601 29.6009 75.2684 29.0357C72.5385 28.5304 69.766 28.2871 66.9868 28.309C64.31 28.3786 61.6442 28.723 59.0296 29.337C57.0309 29.7546 55.084 30.4074 53.2281 31.2824C50.7669 32.4468 48.3964 33.6851 46.2846 35.4399C43.836 37.4608 41.6247 39.6157 39.7939 42.2478C37.8212 45.0967 36.0963 47.9475 34.8564 51.185C33.5971 54.367 32.6118 57.6528 31.9117 61.0048C31.2866 64.2679 30.8883 67.5699 30.7199 70.886C30.5707 73.2152 30.6293 75.5513 30.8951 77.8654C31.1806 80.7683 31.8055 83.6225 32.7565 86.3668C33.3689 88.0301 34.1151 89.6375 34.9874 91.1726C35.8716 92.6174 36.8891 93.9716 38.026 95.217C38.7081 96.0121 39.4752 96.7264 40.3133 97.3466C41.7051 98.3699 43.1128 99.4184 44.7173 100.077C46.3218 100.735 48.0516 101.387 49.8108 101.602C51.6101 101.878 53.4376 101.93 55.2534 101.756C58.7762 101.305 62.1815 100.136 65.2669 98.3185C66.2878 97.7348 67.2549 97.057 68.1562 96.2935C69.5798 95.1599 70.9052 93.9024 72.1172 92.5354C73.3279 91.0868 74.4029 89.5255 75.3277 87.8726C76.2853 86.1587 76.9109 84.2723 77.5536 82.4222C78.6589 79.1342 79.0123 75.5805 79.0392 72.1278C79.066 68.6752 78.5036 65.275 77.7788 61.9383C77.1675 59.1935 76.3294 56.509 75.2732 53.9134C74.9957 52.9051 74.4695 51.9888 73.7448 51.2517C73.148 50.3923 72.3424 49.7075 71.4062 49.2637C70.4737 48.7207 69.4139 48.4433 68.3362 48.4603C67.298 48.2882 66.2311 48.4018 65.2446 48.7892C63.3517 49.5336 61.5423 50.8516 60.6578 52.7881C59.7733 54.7246 59.3301 57.0859 60.1338 59.0881L60.1312 59.0839Z" fill="white"/>
</svg>
