<svg width="38" height="44" viewBox="0 0 38 44" fill="none" xmlns="http://www.w3.org/2000/svg">
<path id="calendar_month" d="M4.22222 44C3.06111 44 2.06713 43.5692 1.24028 42.7075C0.413426 41.8458 0 40.81 0 39.6V8.8C0 7.59 0.413426 6.55417 1.24028 5.6925C2.06713 4.83083 3.06111 4.4 4.22222 4.4H6.33333V0H10.5556V4.4H27.4444V0H31.6667V4.4H33.7778C34.9389 4.4 35.9329 4.83083 36.7597 5.6925C37.5866 6.55417 38 7.59 38 8.8V39.6C38 40.81 37.5866 41.8458 36.7597 42.7075C35.9329 43.5692 34.9389 44 33.7778 44H4.22222ZM4.22222 39.6H33.7778V17.6H4.22222V39.6ZM4.22222 13.2H33.7778V8.8H4.22222V13.2ZM19 26.4C18.4019 26.4 17.9005 26.1892 17.4958 25.7675C17.0912 25.3458 16.8889 24.8233 16.8889 24.2C16.8889 23.5767 17.0912 23.0542 17.4958 22.6325C17.9005 22.2108 18.4019 22 19 22C19.5981 22 20.0995 22.2108 20.5042 22.6325C20.9088 23.0542 21.1111 23.5767 21.1111 24.2C21.1111 24.8233 20.9088 25.3458 20.5042 25.7675C20.0995 26.1892 19.5981 26.4 19 26.4ZM10.5556 26.4C9.95741 26.4 9.45602 26.1892 9.05139 25.7675C8.64676 25.3458 8.44444 24.8233 8.44444 24.2C8.44444 23.5767 8.64676 23.0542 9.05139 22.6325C9.45602 22.2108 9.95741 22 10.5556 22C11.1537 22 11.6551 22.2108 12.0597 22.6325C12.4644 23.0542 12.6667 23.5767 12.6667 24.2C12.6667 24.8233 12.4644 25.3458 12.0597 25.7675C11.6551 26.1892 11.1537 26.4 10.5556 26.4ZM27.4444 26.4C26.8463 26.4 26.3449 26.1892 25.9403 25.7675C25.5357 25.3458 25.3333 24.8233 25.3333 24.2C25.3333 23.5767 25.5357 23.0542 25.9403 22.6325C26.3449 22.2108 26.8463 22 27.4444 22C28.0426 22 28.544 22.2108 28.9486 22.6325C29.3532 23.0542 29.5556 23.5767 29.5556 24.2C29.5556 24.8233 29.3532 25.3458 28.9486 25.7675C28.544 26.1892 28.0426 26.4 27.4444 26.4ZM19 35.2C18.4019 35.2 17.9005 34.9892 17.4958 34.5675C17.0912 34.1458 16.8889 33.6233 16.8889 33C16.8889 32.3767 17.0912 31.8542 17.4958 31.4325C17.9005 31.0108 18.4019 30.8 19 30.8C19.5981 30.8 20.0995 31.0108 20.5042 31.4325C20.9088 31.8542 21.1111 32.3767 21.1111 33C21.1111 33.6233 20.9088 34.1458 20.5042 34.5675C20.0995 34.9892 19.5981 35.2 19 35.2ZM10.5556 35.2C9.95741 35.2 9.45602 34.9892 9.05139 34.5675C8.64676 34.1458 8.44444 33.6233 8.44444 33C8.44444 32.3767 8.64676 31.8542 9.05139 31.4325C9.45602 31.0108 9.95741 30.8 10.5556 30.8C11.1537 30.8 11.6551 31.0108 12.0597 31.4325C12.4644 31.8542 12.6667 32.3767 12.6667 33C12.6667 33.6233 12.4644 34.1458 12.0597 34.5675C11.6551 34.9892 11.1537 35.2 10.5556 35.2ZM27.4444 35.2C26.8463 35.2 26.3449 34.9892 25.9403 34.5675C25.5357 34.1458 25.3333 33.6233 25.3333 33C25.3333 32.3767 25.5357 31.8542 25.9403 31.4325C26.3449 31.0108 26.8463 30.8 27.4444 30.8C28.0426 30.8 28.544 31.0108 28.9486 31.4325C29.3532 31.8542 29.5556 32.3767 29.5556 33C29.5556 33.6233 29.3532 34.1458 28.9486 34.5675C28.544 34.9892 28.0426 35.2 27.4444 35.2Z" fill="white"/>
</svg>
