<svg width="30" height="30" viewBox="0 0 30 30" fill="none" xmlns="http://www.w3.org/2000/svg">
<path id="Union" fill-rule="evenodd" clip-rule="evenodd" d="M27.3969 29.5182C27.9827 30.104 28.9325 30.104 29.5182 29.5182C30.104 28.9325 30.104 27.9827 29.5182 27.3969L17.1215 15.0002L29.5182 2.60342C30.104 2.01763 30.104 1.06789 29.5182 0.4821C28.9325 -0.103687 27.9827 -0.103687 27.3969 0.4821L15.0002 12.8788L2.59972 0.478401C2.01394 -0.107384 1.06419 -0.107385 0.478404 0.478401C-0.107382 1.06419 -0.107382 2.01394 0.478404 2.59972L12.8788 15.0002L0.478402 27.4006C-0.107384 27.9864 -0.107385 28.9362 0.478402 29.5219C1.06419 30.1077 2.01394 30.1077 2.59972 29.5219L15.0002 17.1215L27.3969 29.5182Z" fill="white"/>
</svg>
