<svg width="18" height="18" viewBox="0 0 18 18" fill="none" xmlns="http://www.w3.org/2000/svg">
<path id="Union" fill-rule="evenodd" clip-rule="evenodd" d="M15.0815 16.7028C15.6673 17.2886 16.617 17.2886 17.2028 16.7028C17.7886 16.117 17.7886 15.1673 17.2028 14.5815L11.1931 8.57182L17.2028 2.56217C17.7886 1.97639 17.7886 1.02664 17.2028 0.440851C16.617 -0.144935 15.6673 -0.144935 15.0815 0.440851L9.07182 6.4505L3.06066 0.43934C2.47488 -0.146446 1.52513 -0.146447 0.939341 0.43934C0.353554 1.02513 0.353555 1.97487 0.939341 2.56066L6.9505 8.57182L0.93934 14.583C0.353554 15.1688 0.353553 16.1185 0.93934 16.7043C1.52513 17.2901 2.47487 17.2901 3.06066 16.7043L9.07182 10.6931L15.0815 16.7028Z" fill="#949494"/>
</svg>
