<svg width="24" height="24" viewBox="0 0 24 24" fill="none" xmlns="http://www.w3.org/2000/svg">
<rect width="24" height="24" rx="8" fill="#00B4D2"/>
<mask id="mask0_535_34658" style="mask-type:alpha" maskUnits="userSpaceOnUse" x="4" y="4" width="16" height="16">
<rect x="4.5" y="4.5" width="15" height="15" fill="#D9D9D9"/>
</mask>
<g mask="url(#mask0_535_34658)">
<path d="M12 16.375C10.5312 15.2917 9.4349 14.2396 8.71094 13.2188C7.98698 12.1979 7.625 11.1979 7.625 10.2188C7.625 9.47917 7.75781 8.83073 8.02344 8.27344C8.28906 7.71615 8.63021 7.25 9.04688 6.875C9.46354 6.5 9.93229 6.21875 10.4531 6.03125C10.974 5.84375 11.4896 5.75 12 5.75C12.5104 5.75 13.026 5.84375 13.5469 6.03125C14.0677 6.21875 14.5365 6.5 14.9531 6.875C15.3698 7.25 15.7109 7.71615 15.9766 8.27344C16.2422 8.83073 16.375 9.47917 16.375 10.2188C16.375 11.1979 16.013 12.1979 15.2891 13.2188C14.5651 14.2396 13.4688 15.2917 12 16.375ZM12 11.375C12.3438 11.375 12.638 11.2526 12.8828 11.0078C13.1276 10.763 13.25 10.4688 13.25 10.125C13.25 9.78125 13.1276 9.48698 12.8828 9.24219C12.638 8.9974 12.3438 8.875 12 8.875C11.6562 8.875 11.362 8.9974 11.1172 9.24219C10.8724 9.48698 10.75 9.78125 10.75 10.125C10.75 10.4688 10.8724 10.763 11.1172 11.0078C11.362 11.2526 11.6562 11.375 12 11.375ZM7.625 18.25V17H16.375V18.25H7.625Z" fill="white"/>
</g>
</svg>
