<svg width="15" height="12" viewBox="0 0 15 12" fill="#000" xmlns="http://www.w3.org/2000/svg">
<path id="local_activity" d="M5.4 9L7.5 7.425L9.5625 9L8.775 6.45L10.875 4.8H8.325L7.5 2.25L6.675 4.8H4.125L6.1875 6.45L5.4 9ZM1.5 12C1.0875 12 0.734375 11.8531 0.440625 11.5594C0.146875 11.2656 0 10.9125 0 10.5V7.96875C0 7.83125 0.04375 7.7125 0.13125 7.6125C0.21875 7.5125 0.33125 7.45 0.46875 7.425C0.76875 7.325 1.01562 7.14375 1.20938 6.88125C1.40313 6.61875 1.5 6.325 1.5 6C1.5 5.675 1.40313 5.38125 1.20938 5.11875C1.01562 4.85625 0.76875 4.675 0.46875 4.575C0.33125 4.55 0.21875 4.4875 0.13125 4.3875C0.04375 4.2875 0 4.16875 0 4.03125V1.5C0 1.0875 0.146875 0.734375 0.440625 0.440625C0.734375 0.146875 1.0875 0 1.5 0H13.5C13.9125 0 14.2656 0.146875 14.5594 0.440625C14.8531 0.734375 15 1.0875 15 1.5V4.03125C15 4.16875 14.9563 4.2875 14.8688 4.3875C14.7813 4.4875 14.6687 4.55 14.5312 4.575C14.2312 4.675 13.9844 4.85625 13.7906 5.11875C13.5969 5.38125 13.5 5.675 13.5 6C13.5 6.325 13.5969 6.61875 13.7906 6.88125C13.9844 7.14375 14.2312 7.325 14.5312 7.425C14.6687 7.45 14.7813 7.5125 14.8688 7.6125C14.9563 7.7125 15 7.83125 15 7.96875V10.5C15 10.9125 14.8531 11.2656 14.5594 11.5594C14.2656 11.8531 13.9125 12 13.5 12H1.5Z" fill="white"/>
</svg>
